<svg id="color" enable-background="new 0 0 24 24" height="512" viewBox="0 0 24 24" width="512" xmlns="http://www.w3.org/2000/svg"><path d="m21 1h-18c-1.654 0-3 1.346-3 3v16c0 1.654 1.346 3 3 3h18c1.654 0 3-1.346 3-3v-16c0-1.654-1.346-3-3-3z" fill="#607d8b"/><path d="m21 21h-18c-.551 0-1-.448-1-1v-14h20v14c0 .552-.449 1-1 1z" fill="#fff"/><path d="m12 20c-3.309 0-6-2.691-6-6s2.691-6 6-6 6 2.691 6 6-2.691 6-6 6zm0-10c-2.206 0-4 1.795-4 4s1.794 4 4 4 4-1.795 4-4-1.794-4-4-4z" fill="#f44336"/><path d="m8.825 18.59-1.414-1.414 7.764-7.766 1.414 1.414z" fill="#f44336"/><path d="m12 1h-9c-1.654 0-3 1.346-3 3v16c0 1.654 1.346 3 3 3h9v-2h-9c-.551 0-1-.448-1-1v-14h10z" fill="#546d79"/><path d="m12 15.414-2.031 2.031c.596.353 1.29.555 2.031.555zm0-5.414c-2.206 0-4 1.795-4 4 0 .741.203 1.436.555 2.031l3.445-3.445zm0-4h-10v14c0 .552.449 1 1 1h9v-1c-3.309 0-6-2.691-6-6s2.691-6 6-6z" fill="#dedede"/><g fill="#d43a2f"><path d="m12 8c-3.309 0-6 2.691-6 6s2.691 6 6 6v-2c-.741 0-1.435-.202-2.031-.555l-1.144 1.145-1.414-1.414 1.144-1.144c-.352-.596-.555-1.291-.555-2.032 0-2.205 1.794-4 4-4z"/><path d="m12 12.586-3.445 3.445-1.144 1.145 1.414 1.414 1.144-1.145 2.031-2.031z"/></g></svg>